<mxfile host="app.diagrams.net" modified="2023-05-22T10:48:21.920Z" agent="Mozilla/5.0 (Macintosh; Intel Mac OS X 10_15_7) AppleWebKit/537.36 (KHTML, like Gecko) Chrome/113.0.0.0 Safari/537.36" etag="k3kZZPPxaJw1SyaT8AKO" version="21.3.2" type="github">
  <diagram id="C5RBs43oDa-KdzZeNtuy" name="Page-1">
    <mxGraphModel dx="586" dy="377" grid="0" gridSize="10" guides="1" tooltips="1" connect="1" arrows="1" fold="1" page="0" pageScale="1" pageWidth="827" pageHeight="1169" math="0" shadow="0">
      <root>
        <mxCell id="WIyWlLk6GJQsqaUBKTNV-0" />
        <mxCell id="WIyWlLk6GJQsqaUBKTNV-1" parent="WIyWlLk6GJQsqaUBKTNV-0" />
        <mxCell id="zkfFHV4jXpPFQw0GAbJ--0" value="User" style="swimlane;fontStyle=2;align=center;verticalAlign=top;childLayout=stackLayout;horizontal=1;startSize=26;horizontalStack=0;resizeParent=1;resizeLast=0;collapsible=1;marginBottom=0;rounded=0;shadow=0;strokeWidth=1;" parent="WIyWlLk6GJQsqaUBKTNV-1" vertex="1">
          <mxGeometry x="123" y="117" width="214" height="337" as="geometry">
            <mxRectangle x="220" y="120" width="160" height="26" as="alternateBounds" />
          </mxGeometry>
        </mxCell>
        <mxCell id="zkfFHV4jXpPFQw0GAbJ--1" value="ID: int64" style="text;align=left;verticalAlign=top;spacingLeft=4;spacingRight=4;overflow=hidden;rotatable=0;points=[[0,0.5],[1,0.5]];portConstraint=eastwest;" parent="zkfFHV4jXpPFQw0GAbJ--0" vertex="1">
          <mxGeometry y="26" width="214" height="23" as="geometry" />
        </mxCell>
        <mxCell id="zkfFHV4jXpPFQw0GAbJ--2" value="NickName: string" style="text;align=left;verticalAlign=top;spacingLeft=4;spacingRight=4;overflow=hidden;rotatable=0;points=[[0,0.5],[1,0.5]];portConstraint=eastwest;rounded=0;shadow=0;html=0;" parent="zkfFHV4jXpPFQw0GAbJ--0" vertex="1">
          <mxGeometry y="49" width="214" height="25" as="geometry" />
        </mxCell>
        <mxCell id="zkfFHV4jXpPFQw0GAbJ--3" value="Username: string" style="text;align=left;verticalAlign=top;spacingLeft=4;spacingRight=4;overflow=hidden;rotatable=0;points=[[0,0.5],[1,0.5]];portConstraint=eastwest;rounded=0;shadow=0;html=0;" parent="zkfFHV4jXpPFQw0GAbJ--0" vertex="1">
          <mxGeometry y="74" width="214" height="25" as="geometry" />
        </mxCell>
        <mxCell id="ghfOKP7KYfFIm2p9I4aW-0" value="Password: string" style="text;align=left;verticalAlign=top;spacingLeft=4;spacingRight=4;overflow=hidden;rotatable=0;points=[[0,0.5],[1,0.5]];portConstraint=eastwest;rounded=0;shadow=0;html=0;" vertex="1" parent="zkfFHV4jXpPFQw0GAbJ--0">
          <mxGeometry y="99" width="214" height="25" as="geometry" />
        </mxCell>
        <mxCell id="ghfOKP7KYfFIm2p9I4aW-2" value="UserType: types.UserType" style="text;align=left;verticalAlign=top;spacingLeft=4;spacingRight=4;overflow=hidden;rotatable=0;points=[[0,0.5],[1,0.5]];portConstraint=eastwest;rounded=0;shadow=0;html=0;" vertex="1" parent="zkfFHV4jXpPFQw0GAbJ--0">
          <mxGeometry y="124" width="214" height="25" as="geometry" />
        </mxCell>
        <mxCell id="ghfOKP7KYfFIm2p9I4aW-1" value="Deleted: bool" style="text;align=left;verticalAlign=top;spacingLeft=4;spacingRight=4;overflow=hidden;rotatable=0;points=[[0,0.5],[1,0.5]];portConstraint=eastwest;rounded=0;shadow=0;html=0;" vertex="1" parent="zkfFHV4jXpPFQw0GAbJ--0">
          <mxGeometry y="149" width="214" height="25" as="geometry" />
        </mxCell>
        <mxCell id="zkfFHV4jXpPFQw0GAbJ--4" value="" style="line;html=1;strokeWidth=1;align=left;verticalAlign=middle;spacingTop=-1;spacingLeft=3;spacingRight=3;rotatable=0;labelPosition=right;points=[];portConstraint=eastwest;" parent="zkfFHV4jXpPFQw0GAbJ--0" vertex="1">
          <mxGeometry y="174" width="214" height="8" as="geometry" />
        </mxCell>
        <mxCell id="ghfOKP7KYfFIm2p9I4aW-4" value="+ getUserByID(id: int64)" style="text;align=left;verticalAlign=top;spacingLeft=4;spacingRight=4;overflow=hidden;rotatable=0;points=[[0,0.5],[1,0.5]];portConstraint=eastwest;rounded=0;shadow=0;html=0;" vertex="1" parent="zkfFHV4jXpPFQw0GAbJ--0">
          <mxGeometry y="182" width="214" height="25" as="geometry" />
        </mxCell>
        <mxCell id="ghfOKP7KYfFIm2p9I4aW-3" value="+ getUserByName(name: string)" style="text;align=left;verticalAlign=top;spacingLeft=4;spacingRight=4;overflow=hidden;rotatable=0;points=[[0,0.5],[1,0.5]];portConstraint=eastwest;rounded=0;shadow=0;html=0;" vertex="1" parent="zkfFHV4jXpPFQw0GAbJ--0">
          <mxGeometry y="207" width="214" height="25" as="geometry" />
        </mxCell>
        <mxCell id="ghfOKP7KYfFIm2p9I4aW-5" value="+ getUserList(prop: UserProps)" style="text;align=left;verticalAlign=top;spacingLeft=4;spacingRight=4;overflow=hidden;rotatable=0;points=[[0,0.5],[1,0.5]];portConstraint=eastwest;rounded=0;shadow=0;html=0;" vertex="1" parent="zkfFHV4jXpPFQw0GAbJ--0">
          <mxGeometry y="232" width="214" height="25" as="geometry" />
        </mxCell>
        <mxCell id="ghfOKP7KYfFIm2p9I4aW-6" value="+ updateUserInfo(user: User)" style="text;align=left;verticalAlign=top;spacingLeft=4;spacingRight=4;overflow=hidden;rotatable=0;points=[[0,0.5],[1,0.5]];portConstraint=eastwest;rounded=0;shadow=0;html=0;" vertex="1" parent="zkfFHV4jXpPFQw0GAbJ--0">
          <mxGeometry y="257" width="214" height="25" as="geometry" />
        </mxCell>
        <mxCell id="ghfOKP7KYfFIm2p9I4aW-7" value="+ deleteUser(id: int64)" style="text;align=left;verticalAlign=top;spacingLeft=4;spacingRight=4;overflow=hidden;rotatable=0;points=[[0,0.5],[1,0.5]];portConstraint=eastwest;rounded=0;shadow=0;html=0;" vertex="1" parent="zkfFHV4jXpPFQw0GAbJ--0">
          <mxGeometry y="282" width="214" height="25" as="geometry" />
        </mxCell>
        <mxCell id="ghfOKP7KYfFIm2p9I4aW-8" value="+ addUser(user: User)" style="text;align=left;verticalAlign=top;spacingLeft=4;spacingRight=4;overflow=hidden;rotatable=0;points=[[0,0.5],[1,0.5]];portConstraint=eastwest;rounded=0;shadow=0;html=0;" vertex="1" parent="zkfFHV4jXpPFQw0GAbJ--0">
          <mxGeometry y="307" width="214" height="25" as="geometry" />
        </mxCell>
        <mxCell id="ghfOKP7KYfFIm2p9I4aW-10" value="Post" style="swimlane;fontStyle=2;align=center;verticalAlign=top;childLayout=stackLayout;horizontal=1;startSize=26;horizontalStack=0;resizeParent=1;resizeLast=0;collapsible=1;marginBottom=0;rounded=0;shadow=0;strokeWidth=1;" vertex="1" parent="WIyWlLk6GJQsqaUBKTNV-1">
          <mxGeometry x="372" y="114" width="394" height="312" as="geometry">
            <mxRectangle x="220" y="120" width="160" height="26" as="alternateBounds" />
          </mxGeometry>
        </mxCell>
        <mxCell id="ghfOKP7KYfFIm2p9I4aW-11" value="ID: int64" style="text;align=left;verticalAlign=top;spacingLeft=4;spacingRight=4;overflow=hidden;rotatable=0;points=[[0,0.5],[1,0.5]];portConstraint=eastwest;" vertex="1" parent="ghfOKP7KYfFIm2p9I4aW-10">
          <mxGeometry y="26" width="394" height="23" as="geometry" />
        </mxCell>
        <mxCell id="ghfOKP7KYfFIm2p9I4aW-12" value="UserID: int64" style="text;align=left;verticalAlign=top;spacingLeft=4;spacingRight=4;overflow=hidden;rotatable=0;points=[[0,0.5],[1,0.5]];portConstraint=eastwest;rounded=0;shadow=0;html=0;" vertex="1" parent="ghfOKP7KYfFIm2p9I4aW-10">
          <mxGeometry y="49" width="394" height="25" as="geometry" />
        </mxCell>
        <mxCell id="ghfOKP7KYfFIm2p9I4aW-13" value="Title: string" style="text;align=left;verticalAlign=top;spacingLeft=4;spacingRight=4;overflow=hidden;rotatable=0;points=[[0,0.5],[1,0.5]];portConstraint=eastwest;rounded=0;shadow=0;html=0;" vertex="1" parent="ghfOKP7KYfFIm2p9I4aW-10">
          <mxGeometry y="74" width="394" height="25" as="geometry" />
        </mxCell>
        <mxCell id="ghfOKP7KYfFIm2p9I4aW-14" value="Content: string" style="text;align=left;verticalAlign=top;spacingLeft=4;spacingRight=4;overflow=hidden;rotatable=0;points=[[0,0.5],[1,0.5]];portConstraint=eastwest;rounded=0;shadow=0;html=0;" vertex="1" parent="ghfOKP7KYfFIm2p9I4aW-10">
          <mxGeometry y="99" width="394" height="25" as="geometry" />
        </mxCell>
        <mxCell id="ghfOKP7KYfFIm2p9I4aW-15" value="CreatedTime: time.Time" style="text;align=left;verticalAlign=top;spacingLeft=4;spacingRight=4;overflow=hidden;rotatable=0;points=[[0,0.5],[1,0.5]];portConstraint=eastwest;rounded=0;shadow=0;html=0;" vertex="1" parent="ghfOKP7KYfFIm2p9I4aW-10">
          <mxGeometry y="124" width="394" height="25" as="geometry" />
        </mxCell>
        <mxCell id="ghfOKP7KYfFIm2p9I4aW-17" value="" style="line;html=1;strokeWidth=1;align=left;verticalAlign=middle;spacingTop=-1;spacingLeft=3;spacingRight=3;rotatable=0;labelPosition=right;points=[];portConstraint=eastwest;" vertex="1" parent="ghfOKP7KYfFIm2p9I4aW-10">
          <mxGeometry y="149" width="394" height="8" as="geometry" />
        </mxCell>
        <mxCell id="ghfOKP7KYfFIm2p9I4aW-18" value="+ getPostByID(id: int64)" style="text;align=left;verticalAlign=top;spacingLeft=4;spacingRight=4;overflow=hidden;rotatable=0;points=[[0,0.5],[1,0.5]];portConstraint=eastwest;rounded=0;shadow=0;html=0;" vertex="1" parent="ghfOKP7KYfFIm2p9I4aW-10">
          <mxGeometry y="157" width="394" height="25" as="geometry" />
        </mxCell>
        <mxCell id="ghfOKP7KYfFIm2p9I4aW-19" value="+ searchPostListByName(name: string)" style="text;align=left;verticalAlign=top;spacingLeft=4;spacingRight=4;overflow=hidden;rotatable=0;points=[[0,0.5],[1,0.5]];portConstraint=eastwest;rounded=0;shadow=0;html=0;" vertex="1" parent="ghfOKP7KYfFIm2p9I4aW-10">
          <mxGeometry y="182" width="394" height="25" as="geometry" />
        </mxCell>
        <mxCell id="ghfOKP7KYfFIm2p9I4aW-20" value="+ getPostByUserID(prop: UserProps)" style="text;align=left;verticalAlign=top;spacingLeft=4;spacingRight=4;overflow=hidden;rotatable=0;points=[[0,0.5],[1,0.5]];portConstraint=eastwest;rounded=0;shadow=0;html=0;" vertex="1" parent="ghfOKP7KYfFIm2p9I4aW-10">
          <mxGeometry y="207" width="394" height="25" as="geometry" />
        </mxCell>
        <mxCell id="ghfOKP7KYfFIm2p9I4aW-21" value="+ searchPostListByTime(startTime: time:Time, endTime: time.Time)" style="text;align=left;verticalAlign=top;spacingLeft=4;spacingRight=4;overflow=hidden;rotatable=0;points=[[0,0.5],[1,0.5]];portConstraint=eastwest;rounded=0;shadow=0;html=0;" vertex="1" parent="ghfOKP7KYfFIm2p9I4aW-10">
          <mxGeometry y="232" width="394" height="25" as="geometry" />
        </mxCell>
        <mxCell id="ghfOKP7KYfFIm2p9I4aW-22" value="+ deletePost(id: int64)" style="text;align=left;verticalAlign=top;spacingLeft=4;spacingRight=4;overflow=hidden;rotatable=0;points=[[0,0.5],[1,0.5]];portConstraint=eastwest;rounded=0;shadow=0;html=0;" vertex="1" parent="ghfOKP7KYfFIm2p9I4aW-10">
          <mxGeometry y="257" width="394" height="25" as="geometry" />
        </mxCell>
        <mxCell id="ghfOKP7KYfFIm2p9I4aW-23" value="+ createPost(post: Post)" style="text;align=left;verticalAlign=top;spacingLeft=4;spacingRight=4;overflow=hidden;rotatable=0;points=[[0,0.5],[1,0.5]];portConstraint=eastwest;rounded=0;shadow=0;html=0;" vertex="1" parent="ghfOKP7KYfFIm2p9I4aW-10">
          <mxGeometry y="282" width="394" height="25" as="geometry" />
        </mxCell>
        <mxCell id="ghfOKP7KYfFIm2p9I4aW-25" value="Comment" style="swimlane;fontStyle=2;align=center;verticalAlign=top;childLayout=stackLayout;horizontal=1;startSize=26;horizontalStack=0;resizeParent=1;resizeLast=0;collapsible=1;marginBottom=0;rounded=0;shadow=0;strokeWidth=1;" vertex="1" parent="WIyWlLk6GJQsqaUBKTNV-1">
          <mxGeometry x="788" y="114" width="394" height="340" as="geometry">
            <mxRectangle x="220" y="120" width="160" height="26" as="alternateBounds" />
          </mxGeometry>
        </mxCell>
        <mxCell id="ghfOKP7KYfFIm2p9I4aW-26" value="ID: int64" style="text;align=left;verticalAlign=top;spacingLeft=4;spacingRight=4;overflow=hidden;rotatable=0;points=[[0,0.5],[1,0.5]];portConstraint=eastwest;" vertex="1" parent="ghfOKP7KYfFIm2p9I4aW-25">
          <mxGeometry y="26" width="394" height="23" as="geometry" />
        </mxCell>
        <mxCell id="ghfOKP7KYfFIm2p9I4aW-27" value="UserID: int64" style="text;align=left;verticalAlign=top;spacingLeft=4;spacingRight=4;overflow=hidden;rotatable=0;points=[[0,0.5],[1,0.5]];portConstraint=eastwest;rounded=0;shadow=0;html=0;" vertex="1" parent="ghfOKP7KYfFIm2p9I4aW-25">
          <mxGeometry y="49" width="394" height="25" as="geometry" />
        </mxCell>
        <mxCell id="ghfOKP7KYfFIm2p9I4aW-28" value="PostID: int64" style="text;align=left;verticalAlign=top;spacingLeft=4;spacingRight=4;overflow=hidden;rotatable=0;points=[[0,0.5],[1,0.5]];portConstraint=eastwest;rounded=0;shadow=0;html=0;" vertex="1" parent="ghfOKP7KYfFIm2p9I4aW-25">
          <mxGeometry y="74" width="394" height="25" as="geometry" />
        </mxCell>
        <mxCell id="ghfOKP7KYfFIm2p9I4aW-29" value="Content: string" style="text;align=left;verticalAlign=top;spacingLeft=4;spacingRight=4;overflow=hidden;rotatable=0;points=[[0,0.5],[1,0.5]];portConstraint=eastwest;rounded=0;shadow=0;html=0;" vertex="1" parent="ghfOKP7KYfFIm2p9I4aW-25">
          <mxGeometry y="99" width="394" height="25" as="geometry" />
        </mxCell>
        <mxCell id="ghfOKP7KYfFIm2p9I4aW-31" value="Deleted: bool" style="text;align=left;verticalAlign=top;spacingLeft=4;spacingRight=4;overflow=hidden;rotatable=0;points=[[0,0.5],[1,0.5]];portConstraint=eastwest;rounded=0;shadow=0;html=0;" vertex="1" parent="ghfOKP7KYfFIm2p9I4aW-25">
          <mxGeometry y="124" width="394" height="25" as="geometry" />
        </mxCell>
        <mxCell id="ghfOKP7KYfFIm2p9I4aW-30" value="CreatedTime: time.Time" style="text;align=left;verticalAlign=top;spacingLeft=4;spacingRight=4;overflow=hidden;rotatable=0;points=[[0,0.5],[1,0.5]];portConstraint=eastwest;rounded=0;shadow=0;html=0;" vertex="1" parent="ghfOKP7KYfFIm2p9I4aW-25">
          <mxGeometry y="149" width="394" height="25" as="geometry" />
        </mxCell>
        <mxCell id="ghfOKP7KYfFIm2p9I4aW-32" value="" style="line;html=1;strokeWidth=1;align=left;verticalAlign=middle;spacingTop=-1;spacingLeft=3;spacingRight=3;rotatable=0;labelPosition=right;points=[];portConstraint=eastwest;" vertex="1" parent="ghfOKP7KYfFIm2p9I4aW-25">
          <mxGeometry y="174" width="394" height="8" as="geometry" />
        </mxCell>
        <mxCell id="ghfOKP7KYfFIm2p9I4aW-33" value="+ getPostByID(id: int64)" style="text;align=left;verticalAlign=top;spacingLeft=4;spacingRight=4;overflow=hidden;rotatable=0;points=[[0,0.5],[1,0.5]];portConstraint=eastwest;rounded=0;shadow=0;html=0;" vertex="1" parent="ghfOKP7KYfFIm2p9I4aW-25">
          <mxGeometry y="182" width="394" height="25" as="geometry" />
        </mxCell>
        <mxCell id="ghfOKP7KYfFIm2p9I4aW-34" value="+ searchPostListByName(name: string)" style="text;align=left;verticalAlign=top;spacingLeft=4;spacingRight=4;overflow=hidden;rotatable=0;points=[[0,0.5],[1,0.5]];portConstraint=eastwest;rounded=0;shadow=0;html=0;" vertex="1" parent="ghfOKP7KYfFIm2p9I4aW-25">
          <mxGeometry y="207" width="394" height="25" as="geometry" />
        </mxCell>
        <mxCell id="ghfOKP7KYfFIm2p9I4aW-35" value="+ getPostByUserID(prop: UserProps)" style="text;align=left;verticalAlign=top;spacingLeft=4;spacingRight=4;overflow=hidden;rotatable=0;points=[[0,0.5],[1,0.5]];portConstraint=eastwest;rounded=0;shadow=0;html=0;" vertex="1" parent="ghfOKP7KYfFIm2p9I4aW-25">
          <mxGeometry y="232" width="394" height="25" as="geometry" />
        </mxCell>
        <mxCell id="ghfOKP7KYfFIm2p9I4aW-36" value="+ searchPostListByTime(startTime: time:Time, endTime: time.Time)" style="text;align=left;verticalAlign=top;spacingLeft=4;spacingRight=4;overflow=hidden;rotatable=0;points=[[0,0.5],[1,0.5]];portConstraint=eastwest;rounded=0;shadow=0;html=0;" vertex="1" parent="ghfOKP7KYfFIm2p9I4aW-25">
          <mxGeometry y="257" width="394" height="25" as="geometry" />
        </mxCell>
        <mxCell id="ghfOKP7KYfFIm2p9I4aW-37" value="+ deletePost(id: int64)" style="text;align=left;verticalAlign=top;spacingLeft=4;spacingRight=4;overflow=hidden;rotatable=0;points=[[0,0.5],[1,0.5]];portConstraint=eastwest;rounded=0;shadow=0;html=0;" vertex="1" parent="ghfOKP7KYfFIm2p9I4aW-25">
          <mxGeometry y="282" width="394" height="25" as="geometry" />
        </mxCell>
        <mxCell id="ghfOKP7KYfFIm2p9I4aW-38" value="+ createPost(post: Post)" style="text;align=left;verticalAlign=top;spacingLeft=4;spacingRight=4;overflow=hidden;rotatable=0;points=[[0,0.5],[1,0.5]];portConstraint=eastwest;rounded=0;shadow=0;html=0;" vertex="1" parent="ghfOKP7KYfFIm2p9I4aW-25">
          <mxGeometry y="307" width="394" height="25" as="geometry" />
        </mxCell>
      </root>
    </mxGraphModel>
  </diagram>
</mxfile>
